PathFileType	4	(X/Y/Z)	4_coords_data.trc
DataRate	CameraRate	NumFrames	NumMarkers	Units	OrigDataRate	OrigDataStartFrame	OrigNumFrames
30.0	30.0	6	21	m	30.0	10	47
Frame#	Time	THUMB_TIP	THUMB_IP	THUMB_MCP	THUMB_CMC	INDEX_TIP	INDEX_DIP	INDEX_PIP	INDEX_MCP	MIDDLE_TIP	MIDDLE_DIP	MIDDLE_PIP	MIDDLE_MCP	RING_TIP	RING_DIP	RING_PIP	RING_MCP	PINKY_TIP	PINKY_DIP	PINKY_PIP	PINKY_MCP	WRIST
X1	Y1	Z1	X2	Y2	Z2	X3	Y3	Z3	X4	Y4	Z4	X5	Y5	Z5	X6	Y6	Z6	X7	Y7	Z7	X8	Y8	Z8	X9	Y9	Z9	X10	Y10	Z10	X11	Y11	Z11	X12	Y12	Z12	X13	Y13	Z13	X14	Y14	Z14	X15	Y15	Z15	X16	Y16	Z16	X17	Y17	Z17	X18	Y18	Z18	X19	Y19	Z19	X20	Y20	Z20	X21	Y21	Z21
9	0.3	-0.05568619918823242	-0.10502799987792968	1.028949951171875	-0.05092390060424805	-0.07716560363769531	1.0378299560546875	-0.06020600128173828	-0.057311901092529295	1.0619599609375	-0.0627853012084961	-0.01911009979248047	1.076239990234375	-0.05609329986572266	-0.027689599990844728	1.05193994140625	-0.039955799102783206	-0.028312299728393556	1.0414599609375	-0.034069400787353515	-0.03438479995727539	1.017280029296875	-0.07892130279541015	-0.03675790023803711	1.01675	-0.04765819931030273	-0.012616700172424316	1.0518900146484376	-0.03885129928588867	-0.009889679908752442	1.04352001953125	-0.030865400314331055	-0.010999699592590333	1.014469970703125	-0.07865959930419922	-0.01126140022277832	1.0096500244140625	-0.051097400665283205	0.0035591099262237548	1.0548800048828124	-0.04116120147705078	0.007968570232391357	1.0498900146484376	-0.027978000640869142	0.01171269989013672	1.0255699462890624	-0.07305809783935546	0.01409869956970215	1.0123599853515626	-0.05577080154418945	0.02149850082397461	1.053760009765625	-0.04130690002441406	0.02523970031738281	1.0458900146484376	-0.03536740112304688	0.03264009857177735	1.0263699951171874	-0.07121579742431641	0.037750099182128904	1.0185599975585937	-0.08774330139160157	0.00862852954864502	1.093699951171875
10	0.3333333333333333	-0.0557318000793457	-0.10491699981689454	1.02881005859375	-0.050963401794433594	-0.07708830261230469	1.03772998046875	-0.060262798309326175	-0.0572849006652832	1.0619000244140624	-0.06283440017700195	-0.0190531005859375	1.07625	-0.05611009979248047	-0.027893299102783202	1.0511400146484375	-0.0401083984375	-0.02832710075378418	1.041550048828125	-0.03418470001220703	-0.03439049911499024	1.0172999877929687	-0.07902230072021485	-0.03669440078735352	1.0167899780273437	-0.047577800750732424	-0.012564700126647949	1.051800048828125	-0.03881010055541992	-0.009910189628601074	1.0433299560546876	-0.030929500579833985	-0.011011099815368653	1.01447998046875	-0.07870760345458984	-0.011205499649047851	1.0096900024414062	-0.05090790176391601	0.003540060043334961	1.055469970703125	-0.041191001892089844	0.007958040237426758	1.0498499755859374	-0.028005699157714843	0.01173390007019043	1.0255400390625	-0.07306390380859375	0.014140399932861328	1.0123499755859375	-0.05586380004882813	0.021402700424194336	1.054010009765625	-0.04118099975585938	0.0253164005279541	1.0459100341796874	-0.03539289855957031	0.032637901306152343	1.026449951171875	-0.07123880004882813	0.03777399826049805	1.0185399780273436	-0.08769180297851563	0.00851891040802002	1.09375
11	0.36666666666666664	-0.055685398101806644	-0.1049469985961914	1.028699951171875	-0.05095869827270508	-0.07712799835205078	1.0377099609375	-0.06029119873046875	-0.057354499816894534	1.0619100341796874	-0.06289870071411133	-0.01908370018005371	1.076260009765625	-0.056192100524902346	-0.02790369987487793	1.05168994140625	-0.04009180068969727	-0.02842009925842285	1.0416099853515626	-0.03414049911499024	-0.03450469970703125	1.0173300170898438	-0.07898480224609375	-0.0367942008972168	1.016760009765625	-0.04771979904174805	-0.012712100028991698	1.051949951171875	-0.03890570068359375	-0.010003100395202637	1.0435400390625	-0.030889999389648436	-0.011141599655151367	1.0145	-0.07865460205078124	-0.011289799690246582	1.0096699829101563	-0.050971099853515625	0.00336870002746582	1.054699951171875	-0.041185798645019533	0.007842520236968993	1.0498499755859374	-0.027989099502563477	0.011605799674987793	1.02556005859375	-0.0730553970336914	0.014052900314331054	1.0123699951171874	-0.05587039947509766	0.02147760009765625	1.053760009765625	-0.04128630065917969	0.025186399459838867	1.0458299560546875	-0.03535990142822266	0.03249259948730469	1.0264000244140625	-0.07131510162353516	0.03768209838867188	1.0185399780273436	-0.0878114013671875	0.008430359840393066	1.0938800048828126
12	0.4	-0.05561119842529297	-0.10514299774169922	1.028719970703125	-0.05086940002441406	-0.07732389831542968	1.037780029296875	-0.060259201049804687	-0.05758810043334961	1.062050048828125	-0.06282929992675781	-0.01936109924316406	1.076300048828125	-0.05615620040893555	-0.0280393009185791	1.051550048828125	-0.04008919906616211	-0.02861440086364746	1.0416700439453126	-0.034008998870849606	-0.034731800079345704	1.0173699951171875	-0.07886869812011718	-0.037041301727294924	1.016760009765625	-0.04766370010375977	-0.01288700008392334	1.051949951171875	-0.038851600646972656	-0.010154899597167968	1.0436400146484375	-0.030769399642944336	-0.011431699752807617	1.014239990234375	-0.07858529663085938	-0.011539299964904786	1.0096799926757813	-0.05028870010375976	0.0032266499996185297	1.05425	-0.04110860061645508	0.007668230056762695	1.0498699951171875	-0.02790530014038086	0.011361000061035156	1.0255699462890624	-0.07293489837646484	0.01377340030670166	1.012280029296875	-0.05588690185546875	0.021007200241088868	1.0540799560546874	-0.04105339813232422	0.024969900131225586	1.0458900146484376	-0.035295799255371095	0.03233060073852539	1.026260009765625	-0.07124240112304688	0.03744760131835938	1.0183599853515626	-0.08771430206298828	0.008369330406188966	1.09368994140625
13	0.43333333333333335	-0.055632999420166016	-0.10533300018310547	1.0286400146484376	-0.050922298431396486	-0.07752510070800782	1.037760009765625	-0.0602041015625	-0.05781800079345703	1.062	-0.06275590133666992	-0.019506200790405274	1.07631005859375	-0.05597040176391602	-0.028354299545288085	1.051449951171875	-0.03998550033569336	-0.028886499404907225	1.04175	-0.033908798217773435	-0.035046901702880856	1.0174299926757813	-0.07882839965820312	-0.03727669906616211	1.0167899780273437	-0.04748630142211914	-0.013166199684143067	1.051949951171875	-0.0388489990234375	-0.010472999572753907	1.0438199462890625	-0.030632999420166014	-0.011701600074768066	1.0148300170898437	-0.07845709991455078	-0.011760899543762207	1.0097000122070312	-0.049667999267578124	0.002606750011444092	1.05343994140625	-0.04100339889526367	0.0073632001876831055	1.0498599853515624	-0.027745899200439454	0.011045700073242187	1.0255899658203125	-0.07282920074462891	0.013536999702453614	1.0122999877929688	-0.05585049819946289	0.020805200576782226	1.0543599853515624	-0.041145599365234375	0.024635499954223632	1.045800048828125	-0.03518069839477539	0.03196619987487793	1.0263499755859375	-0.07111859893798828	0.037217601776123044	1.018469970703125	-0.08760240173339844	0.008199080467224121	1.0936500244140626
14	0.4666666666666667	-0.05578260040283203	-0.10555500030517578	1.0285699462890625	-0.05101179885864258	-0.07779460144042968	1.03775	-0.060216201782226565	-0.05810770034790039	1.0620799560546874	-0.06264509963989258	-0.01989299964904785	1.0763599853515624	-0.055930698394775394	-0.02859679985046387	1.0517099609375	-0.03996889877319336	-0.029188800811767578	1.041760009765625	-0.03386640167236328	-0.035402400970458985	1.0172999877929687	-0.07876470184326172	-0.03759289932250977	1.0168200073242188	-0.047382598876953126	-0.013488499641418458	1.05181005859375	-0.038609100341796876	-0.010820500373840332	1.0433699951171875	-0.030608999252319337	-0.012067999839782715	1.0143800048828124	-0.07842829895019532	-0.01208650016784668	1.00972998046875	-0.04990589904785156	0.0026037399768829342	1.0541800537109376	-0.040947399139404296	0.007033510208129883	1.04972998046875	-0.027654199600219725	0.010672800064086914	1.02547998046875	-0.07283380126953125	0.013254099845886231	1.0123900146484375	-0.0555635986328125	0.020667400360107422	1.0536500244140625	-0.04092670059204102	0.024288299560546876	1.0456700439453126	-0.03503879928588867	0.031597900390625	1.02618994140625	-0.07096929931640625	0.036907501220703125	1.0185	-0.0875197982788086	0.007837220191955567	1.0936800537109375
